<?xml version="1.0" encoding="UTF-8" standalone="no"?><!DOCTYPE svg PUBLIC "-//W3C//DTD SVG 1.1//EN" "http://www.w3.org/Graphics/SVG/1.1/DTD/svg11.dtd"><svg width="100%" height="100%" viewBox="0 0 30 30" version="1.1" xmlns="http://www.w3.org/2000/svg" xmlns:xlink="http://www.w3.org/1999/xlink" xml:space="preserve" style="fill-rule:evenodd;clip-rule:evenodd;stroke-linejoin:round;stroke-miterlimit:1.41421;"><path id="Shape-1" d="M24.381,9.281c-0.084,1.839 -1.361,4.357 -3.83,7.554c-2.554,3.339 -4.714,5.009 -6.481,5.009c-1.094,0 -2.021,-1.017 -2.777,-3.051c-0.506,-1.864 -1.011,-3.728 -1.516,-5.592c-0.562,-2.033 -1.165,-3.05 -1.809,-3.05c-0.141,0 -0.632,0.297 -1.474,0.89l-0.884,-1.146c0.927,-0.819 1.841,-1.638 2.741,-2.459c1.236,-1.074 2.164,-1.64 2.782,-1.697c1.462,-0.141 2.362,0.864 2.699,3.016c0.365,2.322 0.617,3.766 0.759,4.331c0.422,1.926 0.885,2.888 1.392,2.888c0.393,0 0.983,-0.625 1.77,-1.874c0.787,-1.25 1.208,-2.201 1.265,-2.854c0.112,-1.078 -0.31,-1.618 -1.265,-1.618c-0.449,0 -0.913,0.104 -1.39,0.309c0.923,-3.041 2.687,-4.519 5.29,-4.434c1.929,0.057 2.839,1.316 2.728,3.778Z" style="fill:#19b7e9;fill-rule:nonzero;"/><path d="M24.033,17.902c0.363,0.002 0.654,0.294 0.654,0.654l0,5.477c0,0.361 -0.293,0.654 -0.654,0.654l-18.066,0c-0.361,0 -0.655,-0.293 -0.655,-0.654l0,-5.477c0,-0.36 0.292,-0.652 0.655,-0.654l1.533,0l0,4.888l15,0l0,-4.888l1.533,0Z" style="fill:#17b7ea;"/></svg>