<?xml version="1.0" encoding="UTF-8" standalone="no"?><!DOCTYPE svg PUBLIC "-//W3C//DTD SVG 1.1//EN" "http://www.w3.org/Graphics/SVG/1.1/DTD/svg11.dtd"><svg width="100%" height="100%" viewBox="0 0 30 30" version="1.1" xmlns="http://www.w3.org/2000/svg" xmlns:xlink="http://www.w3.org/1999/xlink" xml:space="preserve" style="fill-rule:evenodd;clip-rule:evenodd;stroke-linejoin:round;stroke-miterlimit:1.41421;"><path id="Shape-1" d="M24.834,9.12c-0.087,1.928 -1.426,4.569 -4.015,7.92c-2.677,3.5 -4.941,5.251 -6.794,5.251c-1.147,0 -2.119,-1.066 -2.912,-3.198c-0.53,-1.954 -1.059,-3.908 -1.589,-5.863c-0.589,-2.131 -1.221,-3.198 -1.896,-3.198c-0.148,0 -0.663,0.312 -1.545,0.933l-0.927,-1.2c0.972,-0.859 1.93,-1.718 2.873,-2.578c1.296,-1.127 2.269,-1.719 2.917,-1.779c1.533,-0.148 2.476,0.906 2.83,3.161c0.382,2.434 0.647,3.948 0.796,4.54c0.441,2.02 0.927,3.028 1.458,3.028c0.412,0 1.031,-0.655 1.856,-1.965c0.825,-1.31 1.267,-2.306 1.326,-2.991c0.118,-1.13 -0.324,-1.697 -1.326,-1.697c-0.471,0 -0.957,0.109 -1.457,0.325c0.968,-3.189 2.817,-4.738 5.545,-4.649c2.023,0.06 2.977,1.38 2.86,3.96Z" style="fill:#19b7e9;fill-rule:nonzero;"/><path d="M24.132,17.461c0.395,0.002 0.712,0.32 0.712,0.712l0,5.959c0,0.393 -0.319,0.712 -0.712,0.712l-18.264,0c-0.393,0 -0.712,-0.319 -0.712,-0.712l0,-5.959c0,-0.392 0.317,-0.71 0.712,-0.712l1.511,0l0,5.318l15.242,0l0,-5.318l1.511,0Z" style="fill:#17b7ea;"/></svg>